<?xml version="1.0" encoding="utf-8"?>
<svg width="112" height="87" viewBox="0 0 112 87" fill="none" xmlns="http://www.w3.org/2000/svg">
  <path d="M27.312 81.9358L84.3016 81.8998V29.2782L27.3032 10.7924L27.312 81.9358Z" style="fill: rgb(0, 0, 0);"/>
  <path d="M76.1494 38.9527H35.4546V81.8916H76.1494V38.9527Z" fill="#F5F6FA"/>
  <path d="M22.9983 5.46387L22.9712 9.38459L30.9581 11.9778L84.3018 29.2784L86.7749 30.1752L86.7581 27.1917L22.9983 5.46387Z" style="fill: rgb(206, 156, 45);"/>
  <path d="M55.802 34.9197C58.156 34.9197 60.0643 33.0064 60.0643 30.6462C60.0643 28.2859 58.156 26.3726 55.802 26.3726C53.4479 26.3726 51.5396 28.2859 51.5396 30.6462C51.5396 33.0064 53.4479 34.9197 55.802 34.9197Z" fill="#F5F6FA"/>
  <path d="M31.3931 46.4916C30.9101 46.4916 30.5186 46.8842 30.5186 47.3684V51.2515C30.5186 51.7357 30.9101 52.1283 31.3931 52.1283C31.876 52.1283 32.2676 51.7357 32.2676 51.2515V47.3684C32.2676 46.8842 31.876 46.4916 31.3931 46.4916Z" fill="#F7B033"/>
  <path d="M80.0537 46.4916C79.5708 46.4916 79.1792 46.8842 79.1792 47.3684V51.2515C79.1792 51.7357 79.5708 52.1283 80.0537 52.1283C80.5367 52.1283 80.9282 51.7357 80.9282 51.2515V47.3684C80.9282 46.8842 80.5367 46.4916 80.0537 46.4916Z" fill="#F7B033"/>
  <path d="M30.2817 79.2112C29.9251 79.2112 29.5865 79.2868 29.2799 79.4222C29.3665 79.1349 29.4135 78.8304 29.4135 78.5147C29.4135 76.784 28.0141 75.3809 26.2879 75.3809C25.1594 75.3809 24.1707 75.9808 23.6212 76.8797C23.6238 76.8254 23.6254 76.7707 23.6254 76.7157C23.6254 74.8567 22.1223 73.3498 20.2683 73.3498C18.7598 73.3498 17.4838 74.3474 17.0605 75.7204C16.5597 74.9898 15.7207 74.5104 14.7696 74.5104C13.2352 74.5104 11.9913 75.7575 11.9913 77.296C11.9913 77.498 12.0133 77.6947 12.054 77.8845C11.7467 77.7671 11.4137 77.7022 11.0652 77.7022C9.87632 77.7022 8.51841 79.037 9.27093 80.4298C7.53448 79.7335 5.85596 80.3214 5.85596 81.8227L32.7707 81.7066C32.7706 80.3285 31.6563 79.2112 30.2817 79.2112Z" style="fill: rgb(91, 189, 200);"/>
  <path d="M109.575 65.066H90.7759V77.5835H109.575V65.066Z" style="fill: rgb(91, 189, 200);"/>
  <path d="M95.4393 76.3244H93.7173V85.4967H95.4393V76.3244Z" style="fill: rgb(206, 156, 45);"/>
  <path d="M106.633 76.3244H104.911V85.4967H106.633V76.3244Z" style="fill: rgb(206, 156, 45);"/>
  <path d="M69.0563 65.1878L67.4694 59.4599C67.3224 58.9293 66.8405 58.5621 66.2913 58.5621H45.2045C44.6552 58.5621 44.1734 58.9293 44.0264 59.4599L42.4395 65.1878L40.2095 67.8428C39.7529 68.3865 39.5024 69.0746 39.5024 69.7854V77.1678C39.5024 77.6159 39.8647 77.9791 40.3116 77.9791H71.184C71.6309 77.9791 71.9931 77.6159 71.9931 77.1678V69.7854C71.9931 69.0746 71.7426 68.3866 71.286 67.8428L69.0563 65.1878Z" style="fill: rgb(206, 156, 45);"/>
  <path d="M65.0642 58.4701C62.1731 58.7922 45.1934 58.5621 45.1934 58.5621C45.1934 58.5621 44.3497 58.3221 43.8308 60.1676C43.3118 62.013 42.4399 65.1878 42.4399 65.1878H69.0567L67.8183 60.718C67.8183 60.718 67.9553 58.1481 65.0642 58.4701Z" style="fill: rgb(91, 189, 200);"/>
  <path d="M72.4245 62.6113H71.0698C70.7638 62.6113 70.4841 62.7846 70.3473 63.059L69.2397 65.2799H72.4245C72.8706 65.2799 73.2322 64.9174 73.2322 64.4701V63.4211C73.2322 62.9738 72.8706 62.6113 72.4245 62.6113Z" fill="#E1E1E5"/>
  <path d="M40.4721 62.5193H39.1173C38.6713 62.5193 38.3096 62.8819 38.3096 63.3292V64.3781C38.3096 64.8255 38.6713 65.188 39.1173 65.188H42.3021L41.1945 62.967C41.0577 62.6927 40.778 62.5193 40.4721 62.5193Z" fill="#E1E1E5"/>
  <path d="M61.7701 71.7214H49.7255C48.895 71.7214 48.2217 72.3965 48.2217 73.2292V73.4345C48.2217 74.2672 48.895 74.9423 49.7255 74.9423H61.7701C62.6006 74.9423 63.2738 74.2672 63.2738 73.4345V73.2292C63.2738 72.3965 62.6006 71.7214 61.7701 71.7214Z" fill="#E1E1E5"/>
  <path d="M68.7031 71.7203H67.1067C66.2398 71.7203 65.5371 72.4249 65.5371 73.294C65.5371 74.1631 66.2398 74.8677 67.1067 74.8677H68.7031C69.57 74.8677 70.2727 74.1631 70.2727 73.294C70.2726 72.4249 69.57 71.7203 68.7031 71.7203Z" fill="#F5F6FA"/>
  <path d="M44.4517 71.7203H42.8552C41.9884 71.7203 41.2856 72.4249 41.2856 73.294C41.2856 74.1631 41.9884 74.8677 42.8552 74.8677H44.4517C45.3185 74.8677 46.0212 74.1631 46.0212 73.294C46.0212 72.4249 45.3185 71.7203 44.4517 71.7203Z" fill="#F5F6FA"/>
  <path d="M40.999 81.2543C40.999 81.6656 41.241 82.0202 41.5899 82.1829L43.537 82.1408C43.8421 81.9638 44.0473 81.6331 44.0473 81.2543V78.0637H40.999V81.2543Z" fill="#E1E1E5"/>
  <path d="M67.5103 81.2543C67.5103 81.6636 67.7499 82.0168 68.0962 82.1805L69.9728 82.1804C70.319 82.0167 70.5586 81.6635 70.5586 81.2543V78.0637H67.5103V81.2543H67.5103Z" fill="#E1E1E5"/>
  <path d="M76.1386 38.9518H35.4556V46.5055H76.1386V38.9518Z" fill="#E0E0E0"/>
  <path d="M76.15 38.4132H35.4551C35.1579 38.4132 34.917 38.6548 34.917 38.9528V81.8917C34.917 82.1897 35.1579 82.4312 35.4551 82.4312C35.7523 82.4312 35.9933 82.1897 35.9933 81.8917V39.4923H75.6118V81.8917C75.6118 82.1897 75.8528 82.4312 76.15 82.4312C76.4472 82.4312 76.6881 82.1897 76.6881 81.8917V38.9528C76.6881 38.6548 76.4472 38.4132 76.15 38.4132Z" fill="#1E243A"/>
  <path d="M71.9209 68.0775H51.2662C50.969 68.0775 50.728 68.319 50.728 68.617C50.728 68.915 50.969 69.1566 51.2662 69.1566H71.9209C72.218 69.1566 72.459 68.915 72.459 68.617C72.459 68.319 72.218 68.0775 71.9209 68.0775Z" fill="#1E243A"/>
  <path d="M49.1599 68.0775H45.1797C44.8825 68.0775 44.6416 68.319 44.6416 68.617C44.6416 68.915 44.8825 69.1566 45.1797 69.1566H49.1599C49.4571 69.1566 49.6981 68.915 49.6981 68.617C49.6981 68.319 49.4571 68.0775 49.1599 68.0775Z" fill="#1E243A"/>
  <path d="M43.1371 68.0775H39.6363C39.3391 68.0775 39.0981 68.319 39.0981 68.617C39.0981 68.915 39.3391 69.1566 39.6363 69.1566H43.1371C43.4343 69.1566 43.6753 68.915 43.6753 68.617C43.6753 68.319 43.4343 68.0775 43.1371 68.0775Z" fill="#1E243A"/>
  <path d="M41.8173 81.6943C41.6474 81.615 41.5377 81.4426 41.5377 81.255V78.0645C41.5377 77.7665 41.2968 77.5249 40.9996 77.5249C40.7024 77.5249 40.4614 77.7665 40.4614 78.0645V81.255C40.4614 81.8608 40.8155 82.4173 41.3636 82.6728C41.437 82.707 41.5142 82.7232 41.5901 82.7232C41.7929 82.7232 41.9873 82.6076 42.0785 82.411C42.2037 82.1408 42.0868 81.8199 41.8173 81.6943Z" fill="#1E243A"/>
  <path d="M44.048 77.5241C43.7508 77.5241 43.5099 77.7657 43.5099 78.0637V81.2542C43.5099 81.4265 43.4173 81.5871 43.2682 81.6737C43.011 81.8229 42.9231 82.153 43.072 82.4109C43.1717 82.5837 43.3525 82.6803 43.5383 82.6803C43.6298 82.6803 43.7225 82.6569 43.8074 82.6077C44.2878 82.3289 44.5863 81.8104 44.5863 81.2542V78.0637C44.5862 77.7657 44.3452 77.5241 44.048 77.5241Z" fill="#1E243A"/>
  <path d="M68.3257 81.6924C68.1573 81.6127 68.0484 81.4407 68.0484 81.2542V78.0637C68.0484 77.7657 67.8075 77.5241 67.5103 77.5241C67.2131 77.5241 66.9722 77.7657 66.9722 78.0637V81.2542C66.9722 81.8564 67.3233 82.4115 67.8668 82.6684C67.9409 82.7034 68.019 82.72 68.0958 82.72C68.2977 82.72 68.4912 82.6056 68.5829 82.4104C68.7096 82.141 68.5945 81.8194 68.3257 81.6924Z" fill="#1E243A"/>
  <path d="M70.559 77.5241C70.2619 77.5241 70.021 77.7657 70.021 78.0637V81.2542C70.021 81.4407 69.9121 81.6127 69.7437 81.6924C69.4749 81.8195 69.3598 82.141 69.4866 82.4105C69.5784 82.6056 69.7719 82.72 69.9737 82.72C70.0506 82.72 70.1287 82.7034 70.2028 82.6683C70.7461 82.4114 71.0971 81.8563 71.0971 81.2542V78.0637C71.0971 77.7657 70.8562 77.5241 70.559 77.5241Z" fill="#1E243A"/>
  <path d="M63.3539 64.5583H42.3853C42.0881 64.5583 41.8472 64.7999 41.8472 65.0978C41.8472 65.3958 42.0881 65.6374 42.3853 65.6374H63.3539C63.6511 65.6374 63.8921 65.3958 63.8921 65.0978C63.8921 64.7999 63.6511 64.5583 63.3539 64.5583Z" fill="#1E243A"/>
  <path d="M69.1731 64.5583H65.8614C65.5642 64.5583 65.3232 64.7999 65.3232 65.0978C65.3232 65.3958 65.5642 65.6374 65.8614 65.6374H69.1731C69.4703 65.6374 69.7112 65.3958 69.7112 65.0978C69.7112 64.7999 69.4703 64.5583 69.1731 64.5583Z" fill="#1E243A"/>
  <path d="M69.6598 64.8399L68.0941 59.1884C67.8822 58.4238 67.1814 57.8897 66.3899 57.8897H45.1675C44.3759 57.8897 43.6751 58.4238 43.4633 59.1884L41.8976 64.8399L39.7288 67.4221C39.1883 68.0657 38.8906 68.8834 38.8906 69.7247V77.1547C38.8906 77.9024 39.4973 78.5107 40.2431 78.5107H71.3144C72.0601 78.5107 72.6669 77.9024 72.6669 77.1547V69.7247C72.6669 68.8834 72.3693 68.0656 71.8287 67.4221L69.6598 64.8399ZM42.3853 65.0976H42.3846H42.3853ZM71.5904 77.1547C71.5904 77.3074 71.4665 77.4316 71.3141 77.4316H40.2429C40.0906 77.4316 39.9667 77.3074 39.9667 77.1547V69.7247C39.9667 69.1373 40.1745 68.5665 40.5518 68.1172L42.796 65.4451C42.8457 65.3859 42.8823 65.3166 42.903 65.242L44.5 59.4773C44.583 59.1779 44.8573 58.9688 45.1672 58.9688H66.3897C66.6995 58.9688 66.9739 59.1779 67.0568 59.4773L68.6539 65.242C68.6746 65.3166 68.711 65.3859 68.7608 65.4451L71.0051 68.1172C71.3824 68.5665 71.5902 69.1374 71.5902 69.7247V77.1547H71.5904Z" fill="#1E243A"/>
  <path d="M51.9529 62.0836L47.565 64.6305C47.3078 64.7798 47.22 65.1099 47.3689 65.3678C47.4687 65.5406 47.6494 65.6371 47.8351 65.6371C47.9266 65.6371 48.0194 65.6137 48.1043 65.5644L52.4922 63.0175C52.7493 62.8683 52.8372 62.5381 52.6883 62.2802C52.5394 62.0223 52.21 61.9343 51.9529 62.0836Z" fill="#1E243A"/>
  <path d="M54.4305 60.6119L53.6811 61.0839C53.4295 61.2425 53.3536 61.5755 53.5117 61.8278C53.614 61.991 53.7889 62.0804 53.9679 62.0804C54.0657 62.0804 54.1647 62.0536 54.2536 61.9976L55.003 61.5256C55.2547 61.367 55.3305 61.034 55.1725 60.7817C55.0144 60.5294 54.6822 60.4533 54.4305 60.6119Z" fill="#1E243A"/>
  <path d="M65.1175 57.961L63.4573 58.9144C63.1994 59.0625 63.1101 59.3923 63.2578 59.6508C63.3572 59.8248 63.5386 59.9223 63.7252 59.9223C63.8159 59.9223 63.9078 59.8993 63.9921 59.8509L65.6524 58.8974C65.9102 58.7493 65.9996 58.4196 65.8519 58.1611C65.7042 57.9025 65.3754 57.813 65.1175 57.961Z" fill="#1E243A"/>
  <path d="M61.051 60.3246L53.892 64.4923C53.635 64.642 53.5476 64.9722 53.6969 65.2299C53.7968 65.4023 53.9772 65.4986 54.1627 65.4986C54.2544 65.4986 54.3474 65.475 54.4325 65.4255L61.5914 61.2578C61.8484 61.1081 61.9358 60.7779 61.7866 60.5203C61.6373 60.2626 61.308 60.175 61.051 60.3246Z" fill="#1E243A"/>
  <path d="M72.5629 61.9649H71.1994C70.6843 61.9649 70.2213 62.2519 69.9909 62.7137L68.8762 64.949C68.7927 65.1163 68.8016 65.3149 68.8997 65.474C68.9978 65.633 69.171 65.7299 69.3575 65.7299H72.5629C73.3079 65.7299 73.9139 65.1222 73.9139 64.3752V63.3195C73.9139 62.5726 73.3079 61.9649 72.5629 61.9649ZM72.8376 64.3752C72.8376 64.5271 72.7144 64.6507 72.5629 64.6507H70.2282L70.9536 63.1962C71.0004 63.1023 71.0946 63.0439 71.1993 63.0439H72.5628C72.7143 63.0439 72.8376 63.1675 72.8376 63.3195V64.3752H72.8376Z" fill="#1E243A"/>
  <path d="M41.6129 62.621C41.3826 62.1592 40.9195 61.8722 40.4044 61.8722H39.041C38.296 61.8722 37.6899 62.4799 37.6899 63.2268V64.2825C37.6899 65.0294 38.296 65.6371 39.041 65.6371H42.2463C42.4328 65.6371 42.606 65.5403 42.7041 65.3812C42.8022 65.2222 42.811 65.0235 42.7276 64.8563L41.6129 62.621ZM39.0409 64.558C38.8894 64.558 38.7661 64.4344 38.7661 64.2825V63.2268C38.7661 63.0749 38.8894 62.9513 39.0409 62.9513H40.4044C40.5091 62.9513 40.6033 63.0096 40.6502 63.1036L41.3754 64.558H39.0409Z" fill="#1E243A"/>
  <path d="M62.1059 71.1338H49.4516C48.467 71.1338 47.666 71.9369 47.666 72.924V73.6642C47.666 74.6514 48.467 75.4544 49.4516 75.4544H62.1059C63.0905 75.4544 63.8914 74.6514 63.8914 73.6642V72.924C63.8915 71.9369 63.0905 71.1338 62.1059 71.1338ZM62.8152 73.6642C62.8152 74.0564 62.497 74.3753 62.106 74.3753H49.4516C49.0605 74.3753 48.7424 74.0564 48.7424 73.6642V72.924C48.7424 72.5319 49.0605 72.2129 49.4516 72.2129H62.106C62.4971 72.2129 62.8152 72.5319 62.8152 72.924V73.6642Z" fill="#1E243A"/>
  <path d="M50.5484 71.1932C50.2512 71.1932 50.0103 71.4348 50.0103 71.7328V74.8354C50.0103 75.1334 50.2512 75.375 50.5484 75.375C50.8456 75.375 51.0865 75.1334 51.0865 74.8354V71.7328C51.0865 71.4348 50.8456 71.1932 50.5484 71.1932Z" fill="#1E243A"/>
  <path d="M53.1524 71.1932C52.8552 71.1932 52.6143 71.4348 52.6143 71.7328V74.8354C52.6143 75.1334 52.8552 75.375 53.1524 75.375C53.4496 75.375 53.6905 75.1334 53.6905 74.8354V71.7328C53.6905 71.4348 53.4496 71.1932 53.1524 71.1932Z" fill="#1E243A"/>
  <path d="M55.7559 71.1932C55.4587 71.1932 55.2178 71.4348 55.2178 71.7328V74.8354C55.2178 75.1334 55.4587 75.375 55.7559 75.375C56.0531 75.375 56.2941 75.1334 56.2941 74.8354V71.7328C56.2941 71.4348 56.0531 71.1932 55.7559 71.1932Z" fill="#1E243A"/>
  <path d="M58.3594 71.1932C58.0622 71.1932 57.8213 71.4348 57.8213 71.7328V74.8354C57.8213 75.1334 58.0622 75.375 58.3594 75.375C58.6566 75.375 58.8976 75.1334 58.8976 74.8354V71.7328C58.8976 71.4348 58.6566 71.1932 58.3594 71.1932Z" fill="#1E243A"/>
  <path d="M60.9625 71.1932C60.6653 71.1932 60.4243 71.4348 60.4243 71.7328V74.8354C60.4243 75.1334 60.6653 75.375 60.9625 75.375C61.2596 75.375 61.5006 75.1334 61.5006 74.8354V71.7328C61.5006 71.4348 61.2596 71.1932 60.9625 71.1932Z" fill="#1E243A"/>
  <path d="M68.7027 71.181H67.1062C65.9441 71.181 64.9985 72.129 64.9985 73.2942C64.9985 74.4594 65.9441 75.4074 67.1062 75.4074H68.7027C69.8648 75.4074 70.8104 74.4594 70.8104 73.2942C70.8104 72.129 69.8648 71.181 68.7027 71.181ZM68.7027 74.3283H67.1062C66.5375 74.3283 66.0748 73.8644 66.0748 73.2942C66.0748 72.724 66.5375 72.2601 67.1062 72.2601H68.7027C69.2714 72.2601 69.7341 72.724 69.7341 73.2942C69.7341 73.8644 69.2714 74.3283 68.7027 74.3283Z" fill="#1E243A"/>
  <path d="M44.4507 71.181H42.8543C41.6921 71.181 40.7466 72.129 40.7466 73.2942C40.7466 74.4594 41.6921 75.4074 42.8543 75.4074H44.4507C45.6129 75.4074 46.5584 74.4594 46.5584 73.2942C46.5584 72.129 45.6129 71.181 44.4507 71.181ZM44.4507 74.3283H42.8543C42.2856 74.3283 41.8228 73.8644 41.8228 73.2942C41.8228 72.724 42.2856 72.2601 42.8543 72.2601H44.4507C45.0194 72.2601 45.4822 72.724 45.4822 73.2942C45.4822 73.8644 45.0194 74.3283 44.4507 74.3283Z" fill="#1E243A"/>
  <path d="M84.4669 28.7649L27.4684 10.2791C27.3047 10.2259 27.1254 10.2546 26.9862 10.3561C26.847 10.4577 26.7646 10.6199 26.7646 10.7924V75.2814C26.7646 75.5794 27.0056 75.8209 27.3028 75.8209C27.6 75.8209 27.8409 75.5794 27.8409 75.2814V11.5339L83.7632 29.6707V81.8998C83.7632 82.1978 84.0041 82.4393 84.3013 82.4393C84.5985 82.4393 84.8394 82.1978 84.8394 81.8998V29.2782C84.8394 29.0442 84.689 28.8368 84.4669 28.7649Z" fill="#1E243A"/>
  <path d="M86.9303 26.6807L23.1705 4.9528C23.0069 4.89698 22.8264 4.92345 22.6855 5.02395C22.5446 5.12445 22.4604 5.28661 22.4592 5.45991L22.4321 9.38064C22.4306 9.61595 22.5812 9.82515 22.8045 9.89767L30.7913 12.4909C31.0741 12.5826 31.3775 12.4273 31.4691 12.1438C31.5606 11.8603 31.4056 11.5561 31.1229 11.4642L23.5111 8.99281L23.5302 6.21506L86.2211 27.5786L86.2314 29.4045L84.4839 28.7708C84.2043 28.6693 83.8959 28.8144 83.7948 29.0946C83.6937 29.3748 83.8383 29.6841 84.1177 29.7855L86.5907 30.6823C86.6502 30.7039 86.7121 30.7145 86.7737 30.7145C86.8834 30.7145 86.9921 30.6809 87.0841 30.6157C87.2278 30.514 87.3129 30.3483 87.312 30.1719L87.2952 27.1884C87.294 26.9585 87.1475 26.7547 86.9303 26.6807Z" fill="#1E243A"/>
  <path d="M75.9669 41.0405H35.6373C35.3401 41.0405 35.0991 41.282 35.0991 41.58C35.0991 41.878 35.3401 42.1196 35.6373 42.1196H75.9669C76.264 42.1196 76.505 41.878 76.505 41.58C76.505 41.282 76.264 41.0405 75.9669 41.0405Z" fill="#1E243A"/>
  <path d="M75.9669 43.4876H35.6373C35.3401 43.4876 35.0991 43.7292 35.0991 44.0272C35.0991 44.3251 35.3401 44.5667 35.6373 44.5667H75.9669C76.264 44.5667 76.505 44.3251 76.505 44.0272C76.505 43.7292 76.264 43.4876 75.9669 43.4876Z" fill="#1E243A"/>
  <path d="M75.9669 45.9346H35.6373C35.3401 45.9346 35.0991 46.1761 35.0991 46.4741C35.0991 46.7721 35.3401 47.0137 35.6373 47.0137H75.9669C76.264 47.0137 76.505 46.7721 76.505 46.4741C76.505 46.1761 76.264 45.9346 75.9669 45.9346Z" fill="#1E243A"/>
  <path d="M55.8015 25.8331C53.1545 25.8331 51.001 27.9922 51.001 30.6462C51.001 33.3002 53.1545 35.4593 55.8015 35.4593C58.4486 35.4593 60.602 33.3002 60.602 30.6462C60.602 27.9922 58.4485 25.8331 55.8015 25.8331ZM55.8015 34.3802C53.7479 34.3802 52.0772 32.7052 52.0772 30.6462C52.0772 28.5872 53.7479 26.9122 55.8015 26.9122C57.8551 26.9122 59.5258 28.5872 59.5258 30.6462C59.5257 32.7051 57.855 34.3802 55.8015 34.3802Z" fill="#1E243A"/>
  <path d="M31.3921 45.9521C30.6132 45.9521 29.9795 46.5875 29.9795 47.3684V51.2515C29.9795 52.0325 30.6132 52.6679 31.3921 52.6679C32.1711 52.6679 32.8048 52.0325 32.8048 51.2515V47.3684C32.8048 46.5875 32.1711 45.9521 31.3921 45.9521ZM31.7285 51.2515C31.7285 51.4375 31.5776 51.5888 31.3921 51.5888C31.2067 51.5888 31.0558 51.4375 31.0558 51.2515V47.3684C31.0558 47.1825 31.2067 47.0312 31.3921 47.0312C31.5776 47.0312 31.7285 47.1825 31.7285 47.3684V51.2515Z" fill="#1E243A"/>
  <path d="M80.0542 45.9521C79.2753 45.9521 78.6416 46.5875 78.6416 47.3684V51.2515C78.6416 52.0325 79.2753 52.6679 80.0542 52.6679C80.8332 52.6679 81.4669 52.0325 81.4669 51.2515V47.3684C81.4669 46.5875 80.8332 45.9521 80.0542 45.9521ZM80.3906 51.2515C80.3906 51.4375 80.2397 51.5888 80.0542 51.5888C79.8688 51.5888 79.7179 51.4375 79.7179 51.2515V47.3684C79.7179 47.1825 79.8688 47.0312 80.0542 47.0312C80.2397 47.0312 80.3906 47.1825 80.3906 47.3684V51.2515Z" fill="#1E243A"/>
  <path d="M93.1434 81.7201H1.15825C0.861058 81.7201 0.620117 81.9617 0.620117 82.2596C0.620117 82.5576 0.861058 82.7992 1.15825 82.7992H93.1434C93.4406 82.7992 93.6815 82.5576 93.6815 82.2596C93.6815 81.9617 93.4406 81.7201 93.1434 81.7201Z" fill="#1E243A"/>
  <path d="M110.938 85.317H77.9971C77.6999 85.317 77.459 85.5585 77.459 85.8565C77.459 86.1545 77.6999 86.3961 77.9971 86.3961H110.938C111.235 86.3961 111.476 86.1545 111.476 85.8565C111.476 85.5585 111.235 85.317 110.938 85.317Z" fill="#1E243A"/>
  <path d="M73.9071 85.317H54.9712C54.674 85.317 54.4331 85.5585 54.4331 85.8565C54.4331 86.1545 54.674 86.3961 54.9712 86.3961H73.9071C74.2043 86.3961 74.4452 86.1545 74.4452 85.8565C74.4452 85.5585 74.2044 85.317 73.9071 85.317Z" fill="#1E243A"/>
  <path d="M50.0289 85.317H39.4019C39.1047 85.317 38.8638 85.5585 38.8638 85.8565C38.8638 86.1545 39.1047 86.3961 39.4019 86.3961H50.0289C50.3261 86.3961 50.5671 86.1545 50.5671 85.8565C50.5671 85.5585 50.3261 85.317 50.0289 85.317Z" fill="#1E243A"/>
  <path d="M30.2819 78.6717C30.1695 78.6717 30.058 78.6778 29.9476 78.6899C29.9504 78.6317 29.9518 78.5733 29.9518 78.5149C29.9518 76.4894 28.3083 74.8415 26.288 74.8415C25.4427 74.8415 24.6478 75.1257 24.0114 75.6333C23.5422 74.0046 22.0418 72.8103 20.2684 72.8103C18.8509 72.8103 17.5852 73.5621 16.9004 74.7485C16.3099 74.2521 15.5581 73.9709 14.7697 73.9709C12.9779 73.9709 11.5134 75.403 11.4551 77.1856C11.3263 77.1704 11.1962 77.1628 11.0653 77.1628C10.1985 77.1628 9.30351 77.6891 8.83813 78.4724C8.61692 78.8448 8.51036 79.25 8.51897 79.6562C7.65286 79.5071 6.83914 79.6407 6.23407 80.0515C5.64327 80.4526 5.31787 81.0816 5.31787 81.8228C5.31787 82.1208 5.55881 82.3623 5.85601 82.3623C6.1532 82.3623 6.39414 82.1208 6.39414 81.8228C6.39414 81.4401 6.54329 81.1447 6.83747 80.9451C7.35717 80.5922 8.21308 80.5869 9.07115 80.9309C9.2816 81.0154 9.52226 80.9585 9.67294 80.7888C9.82369 80.6191 9.85219 80.3728 9.7442 80.173C9.48303 79.6896 9.61016 79.2817 9.76284 79.0247C10.0323 78.5712 10.58 78.242 11.0653 78.242C11.3391 78.242 11.6073 78.2914 11.8624 78.3889C12.0467 78.4592 12.2548 78.423 12.4045 78.2941C12.5542 78.1653 12.6216 77.9647 12.5802 77.7712C12.5465 77.6145 12.5295 77.4547 12.5295 77.2961C12.5295 76.0577 13.5345 75.0501 14.7697 75.0501C15.5076 75.0501 16.1982 75.415 16.6171 76.0262C16.7339 76.1967 16.9379 76.2853 17.1417 76.254C17.3456 76.2228 17.5138 76.0775 17.5748 75.8799C17.9418 74.6894 19.0244 73.8895 20.2684 73.8895C21.8229 73.8895 23.0874 75.1574 23.0874 76.7158C23.0874 76.7621 23.0861 76.8081 23.0839 76.8538C23.072 77.0999 23.228 77.3229 23.4628 77.3955C23.6977 77.468 23.9518 77.3719 24.0802 77.1618C24.5552 76.3846 25.3806 75.9207 26.288 75.9207C27.7147 75.9207 28.8755 77.0845 28.8755 78.515C28.8755 78.7699 28.8383 79.0228 28.7649 79.2664C28.7041 79.4681 28.766 79.6867 28.9233 79.8264C29.0806 79.966 29.3046 80.0011 29.497 79.9162C29.7454 79.8065 30.0095 79.7509 30.2819 79.7509C31.3575 79.7509 32.2326 80.6283 32.2326 81.7068C32.2326 82.0048 32.4736 82.2464 32.7708 82.2464C33.068 82.2464 33.3089 82.0048 33.3089 81.7068C33.3089 80.0332 31.951 78.6717 30.2819 78.6717Z" fill="#1E243A"/>
  <path d="M18.3868 78.9638C17.5172 78.2473 16.6008 77.9518 15.9851 77.8302C15.6934 77.7723 15.4105 77.9629 15.353 78.2552C15.2956 78.5476 15.4854 78.8313 15.777 78.8889C16.2714 78.9866 17.0069 79.2235 17.7033 79.7975C18.6025 80.5384 18.9768 81.4689 19.1199 81.9576C19.1888 82.1928 19.4033 82.3453 19.636 82.3453C19.6862 82.3453 19.7373 82.3382 19.7879 82.3233C20.0731 82.2394 20.2364 81.9396 20.1526 81.6536C19.9747 81.0459 19.5086 79.8882 18.3868 78.9638Z" fill="#1E243A"/>
  <path d="M19.9081 77.1282C19.6517 76.9776 19.322 77.0637 19.1716 77.3208L18.0896 79.1714C17.9393 79.4285 18.0253 79.759 18.2817 79.9097C18.3672 79.96 18.4609 79.9839 18.5533 79.9839C18.738 79.9839 18.9179 79.8884 19.0181 79.7171L20.1001 77.8665C20.2504 77.6094 20.1644 77.2789 19.9081 77.1282Z" fill="#1E243A"/>
  <path d="M109.574 64.5263H90.775C90.4778 64.5263 90.2368 64.7679 90.2368 65.0659V77.5834C90.2368 77.8814 90.4778 78.123 90.775 78.123H109.574C109.871 78.123 110.112 77.8814 110.112 77.5834V65.0659C110.112 64.7679 109.871 64.5263 109.574 64.5263ZM109.036 77.0439H91.3131V65.6054H109.036V77.0439Z" fill="#1E243A"/>
  <path d="M93.7168 77.1879C93.4196 77.1879 93.1787 77.4294 93.1787 77.7274V85.4969C93.1787 85.7949 93.4196 86.0365 93.7168 86.0365C94.014 86.0365 94.255 85.7949 94.255 85.4969V77.7274C94.255 77.4294 94.014 77.1879 93.7168 77.1879Z" fill="#1E243A"/>
  <path d="M95.4395 77.1879C95.1423 77.1879 94.9014 77.4294 94.9014 77.7274V85.4969C94.9014 85.7949 95.1423 86.0365 95.4395 86.0365C95.7367 86.0365 95.9776 85.7949 95.9776 85.4969V77.7274C95.9776 77.4294 95.7367 77.1879 95.4395 77.1879Z" fill="#1E243A"/>
  <path d="M104.911 77.1879C104.614 77.1879 104.373 77.4294 104.373 77.7274V85.4969C104.373 85.7949 104.614 86.0365 104.911 86.0365C105.208 86.0365 105.449 85.7949 105.449 85.4969V77.7274C105.449 77.4294 105.208 77.1879 104.911 77.1879Z" fill="#1E243A"/>
  <path d="M106.632 77.1879C106.335 77.1879 106.094 77.4294 106.094 77.7274V85.4969C106.094 85.7949 106.335 86.0365 106.632 86.0365C106.93 86.0365 107.171 85.7949 107.171 85.4969V77.7274C107.171 77.4294 106.93 77.1879 106.632 77.1879Z" style="fill: rgb(0, 0, 0);"/>
  <path d="M102.487 68.4986C102.386 68.2125 102.186 67.9475 101.889 67.7032C101.591 67.4592 101.165 67.337 100.611 67.337H99.1624C99.0951 67.337 99.0322 67.3581 98.9736 67.4001C98.9148 67.4424 98.8811 67.5096 98.8728 67.6021C98.8644 68.4354 98.8581 69.6475 98.8539 71.2382C98.8496 72.8289 98.8477 74.0915 98.8477 75.0257C98.8477 75.1437 98.8791 75.2278 98.9421 75.2783C99.0051 75.3288 99.091 75.3457 99.2002 75.3287C99.2254 75.3205 99.3281 75.3183 99.5088 75.3225C99.6893 75.3268 99.8129 75.3287 99.8802 75.3287C100.014 75.3205 100.082 75.2403 100.082 75.0889L100.12 72.2861C100.883 72.2189 101.374 72.1472 101.593 72.0715C102.298 71.8274 102.651 71.2047 102.651 70.2029L102.638 69.2181C102.638 69.0247 102.587 68.7848 102.487 68.4986ZM101.391 70.3292C101.391 70.4555 101.349 70.5881 101.265 70.7269C101.181 70.8658 101.076 70.9563 100.95 70.9983C100.841 71.0321 100.688 71.0595 100.491 71.0804C100.293 71.1014 100.161 71.1119 100.094 71.1119L100.107 68.4858C100.165 68.4858 100.293 68.4881 100.491 68.4922C100.688 68.4965 100.85 68.5111 100.976 68.5363C101.102 68.5616 101.202 68.6374 101.278 68.7636C101.353 68.8899 101.391 69.0161 101.391 69.1424V70.3292Z" fill="#1E243A"/>
  <path d="M102.588 68.4625C102.482 68.1592 102.269 67.8755 101.957 67.6195C101.64 67.3604 101.187 67.2291 100.611 67.2291H99.1626C99.0728 67.2291 98.9882 67.2571 98.9111 67.3124C98.8259 67.3736 98.7769 67.4678 98.7658 67.5925C98.7656 67.5954 98.7654 67.5982 98.7654 67.6011C98.757 68.4322 98.7506 69.6558 98.7465 71.238C98.7423 72.7618 98.7402 74.0362 98.7402 75.0259C98.7402 75.1776 98.7856 75.2909 98.8751 75.3627C98.9419 75.4163 99.0248 75.4432 99.1227 75.4432C99.1527 75.4432 99.1842 75.4407 99.217 75.4355C99.2228 75.4346 99.2229 75.4348 99.2285 75.433C99.2353 75.4316 99.2811 75.4253 99.5064 75.4304C99.6882 75.4348 99.813 75.4365 99.8871 75.4366C100.079 75.4247 100.19 75.298 100.19 75.0904L100.226 72.385C100.95 72.319 101.409 72.2497 101.628 72.1736C102.378 71.914 102.758 71.251 102.758 70.2016L102.746 69.2182C102.746 69.0132 102.693 68.7589 102.588 68.4625ZM101.558 71.9695C101.348 72.0421 100.861 72.1124 100.11 72.1786C100.055 72.1834 100.013 72.2293 100.012 72.2846L99.9742 75.0889C99.9742 75.2056 99.9306 75.2176 99.8803 75.2209C99.8134 75.2209 99.6906 75.2189 99.5113 75.2146C99.2746 75.2092 99.2098 75.215 99.1778 75.2231C99.1032 75.2338 99.0466 75.224 99.0094 75.194C98.9735 75.1653 98.9553 75.1087 98.9553 75.0258C98.9553 74.0364 98.9575 72.7622 98.9616 71.2385C98.9657 69.6598 98.9721 68.4383 98.9805 67.6078C98.9891 67.5217 99.0245 67.4963 99.0362 67.4878C99.0765 67.4589 99.1179 67.4448 99.1625 67.4448H100.611C101.136 67.4448 101.544 67.5598 101.821 67.7865C102.102 68.0172 102.292 68.2687 102.385 68.5343C102.482 68.8076 102.53 69.0376 102.53 69.2194L102.543 70.2029C102.543 71.1622 102.221 71.74 101.558 71.9695Z" fill="#1E243A"/>
  <path d="M100.997 68.4305C100.864 68.4039 100.699 68.3888 100.493 68.3843C100.294 68.3801 100.166 68.3779 100.107 68.3779C100.047 68.3779 99.9993 68.4259 99.999 68.4853L99.9863 71.1114C99.9862 71.1401 99.9975 71.1678 100.018 71.188C100.038 71.2084 100.065 71.2198 100.094 71.2198C100.166 71.2198 100.3 71.2093 100.502 71.1877C100.708 71.1658 100.865 71.1376 100.984 71.1007C101.134 71.0506 101.26 70.9437 101.357 70.7828C101.451 70.6272 101.499 70.4746 101.499 70.3292V69.1424C101.499 68.997 101.455 68.8509 101.37 68.7081C101.279 68.5552 101.153 68.4618 100.997 68.4305ZM101.283 70.3291C101.283 70.4345 101.246 70.5495 101.173 70.6708C101.102 70.7883 101.018 70.8619 100.919 70.895C100.816 70.9266 100.669 70.9528 100.479 70.9729C100.352 70.9865 100.264 70.9945 100.202 70.9988L100.214 68.5948C100.281 68.5958 100.373 68.5976 100.488 68.5999C100.679 68.6042 100.836 68.6184 100.954 68.642C101.05 68.6612 101.126 68.7191 101.186 68.819C101.251 68.9277 101.284 69.0365 101.284 69.1423V70.3291H101.283Z" fill="#1E243A"/>
  <path d="M96.2355 71.1111C96.2354 71.1111 96.2351 71.1111 96.235 71.1111L93.5777 71.1137C93.2805 71.114 93.0398 71.3558 93.04 71.6537C93.0403 71.9516 93.2812 72.1928 93.5782 72.1928C93.5783 72.1928 93.5785 72.1928 93.5787 72.1928L96.236 72.1902C96.5332 72.1899 96.7739 71.9481 96.7736 71.6501C96.7733 71.3523 96.5325 71.1111 96.2355 71.1111Z" fill="#1E243A"/>
  <path d="M95.782 72.5275L94.6758 73.6387C94.4659 73.8496 94.4662 74.1913 94.6765 74.4017C94.7816 74.5068 94.9191 74.5594 95.0567 74.5594C95.1946 74.5594 95.3325 74.5066 95.4376 74.401L96.5438 73.2898C96.7538 73.0789 96.7535 72.7372 96.5431 72.5268C96.3327 72.3162 95.992 72.3165 95.782 72.5275Z" fill="#1E243A"/>
  <path d="M95.5056 69.0126C95.2952 68.8021 94.9545 68.8025 94.7446 69.0134C94.5347 69.2243 94.535 69.5659 94.7454 69.7764L95.7798 70.8114C95.8848 70.9166 96.0224 70.9691 96.1599 70.9691C96.2978 70.9691 96.4357 70.9163 96.5408 70.8107C96.7507 70.5997 96.7503 70.2582 96.54 70.0477L95.5056 69.0126Z" fill="#1E243A"/>
  <path d="M107.203 71.0655C107.203 71.0655 107.202 71.0655 107.202 71.0655L104.545 71.0681C104.248 71.0684 104.007 71.3102 104.007 71.6081C104.008 71.9059 104.248 72.1472 104.545 72.1472C104.546 72.1472 104.546 72.1472 104.546 72.1472L107.203 72.1446C107.501 72.1443 107.741 71.9025 107.741 71.6045C107.741 71.3067 107.5 71.0655 107.203 71.0655Z" fill="#1E243A"/>
  <path d="M105 72.4836C104.79 72.273 104.449 72.2734 104.239 72.4843C104.029 72.6952 104.03 73.0368 104.24 73.2473L105.348 74.3564C105.453 74.4615 105.591 74.5141 105.728 74.5141C105.866 74.5141 106.004 74.4613 106.109 74.3557C106.319 74.1447 106.319 73.8032 106.109 73.5927L105 72.4836Z" fill="#1E243A"/>
  <path d="M105.269 68.968L104.236 70.0051C104.026 70.2161 104.027 70.5577 104.237 70.7682C104.342 70.8733 104.48 70.9258 104.617 70.9258C104.755 70.9258 104.893 70.873 104.998 70.7674L106.031 69.7302C106.241 69.5193 106.24 69.1777 106.03 68.9672C105.82 68.7568 105.479 68.757 105.269 68.968Z" fill="#1E243A"/>
  <path d="M13.3573 22.184C12.9835 22.3157 12.7869 22.7258 12.9182 23.1006C13.0215 23.397 13.2992 23.5826 13.5955 23.5826C13.6737 23.5826 13.754 23.5689 13.8329 23.5416C14.2067 23.4099 14.4033 22.9991 14.272 22.6243C14.1407 22.2495 13.7318 22.0524 13.3573 22.184Z" fill="#1E243A"/>
  <path d="M14.2721 19.5705C13.9363 19.3597 13.4937 19.4619 13.2827 19.7986C13.0725 20.1352 13.1744 20.5791 13.5102 20.7899C13.6285 20.864 13.7598 20.9 13.8904 20.9C14.1293 20.9 14.3625 20.7805 14.4988 20.5626C14.709 20.2259 14.6078 19.782 14.2721 19.5705Z" fill="#1E243A"/>
  <path d="M18.2064 20.1358C18.2071 20.1372 18.2085 20.1379 18.2093 20.1394C18.3492 20.2796 18.5328 20.3494 18.7165 20.3494C18.9002 20.3494 19.0839 20.2796 19.2238 20.1394C19.5043 19.8581 19.5043 19.4027 19.2238 19.1214C19.2231 19.1207 19.2224 19.12 19.2209 19.1186C19.2195 19.1172 19.218 19.1157 19.2159 19.1136C18.9353 18.8337 18.4805 18.8352 18.2014 19.1165C17.9223 19.3985 17.923 19.8538 18.2042 20.1344C18.205 20.135 18.2057 20.135 18.2064 20.1358Z" fill="#1E243A"/>
  <path d="M15.7364 24.0888C15.3626 23.9578 14.9536 24.1564 14.823 24.5319C14.6932 24.9067 14.8912 25.3168 15.2657 25.4477C15.3432 25.4743 15.4228 25.4873 15.501 25.4873C15.7981 25.4873 16.0757 25.301 16.1783 25.0046C16.3089 24.629 16.1108 24.219 15.7364 24.0888Z" fill="#1E243A"/>
  <path d="M19.6854 21.4619C19.2916 21.418 18.9364 21.7021 18.8926 22.0971C18.8489 22.4921 19.1323 22.8482 19.5262 22.892C19.5534 22.8949 19.58 22.8971 19.6065 22.8971C19.9674 22.8971 20.2781 22.6251 20.3189 22.2568C20.3627 21.8619 20.0792 21.5065 19.6854 21.4619Z" fill="#1E243A"/>
  <path d="M17.7928 23.855C17.4577 24.0665 17.3572 24.511 17.5689 24.847C17.7052 25.0635 17.9384 25.1822 18.1766 25.1822C18.3072 25.1822 18.4393 25.147 18.5584 25.0715C18.8935 24.8593 18.9939 24.4154 18.7823 24.0795C18.5712 23.7434 18.1279 23.6427 17.7928 23.855Z" fill="#1E243A"/>
  <path d="M16.0864 18.0251C15.6925 18.0697 15.4097 18.4266 15.4549 18.8215C15.4973 19.1884 15.8072 19.4589 16.1667 19.4589C16.194 19.4589 16.222 19.4575 16.2492 19.4546C16.6432 19.4093 16.9258 19.0524 16.8806 18.6575C16.8354 18.2633 16.4796 17.9798 16.0864 18.0251Z" fill="#1E243A"/>
  <path d="M94.9206 30.0017C94.5848 29.7909 94.1421 29.893 93.9312 30.2297C93.721 30.5664 93.8228 31.0103 94.1586 31.221C94.277 31.2951 94.4083 31.3311 94.5388 31.3311C94.7778 31.3311 95.0109 31.2117 95.1473 30.9937C95.3575 30.657 95.2563 30.2132 94.9206 30.0017Z" fill="#1E243A"/>
  <path d="M94.0057 32.6154C93.6319 32.747 93.4353 33.1571 93.5666 33.5326C93.5666 33.5319 93.5666 33.5319 93.5666 33.5319C93.6699 33.8283 93.9476 34.0131 94.2439 34.0131C94.3228 34.0139 94.4024 34.0002 94.4813 33.9729C94.8551 33.8412 95.0517 33.4304 94.9204 33.0556C94.7891 32.6808 94.3803 32.4837 94.0057 32.6154Z" fill="#1E243A"/>
  <path d="M98.8541 30.567C98.8548 30.5684 98.8562 30.5692 98.857 30.5706C98.9969 30.7109 99.1806 30.7807 99.3643 30.7807C99.5479 30.7807 99.7317 30.7109 99.8716 30.5706C100.152 30.2893 100.152 29.8339 99.8716 29.5527C99.8709 29.5519 99.8701 29.5512 99.8687 29.5505C99.8673 29.5483 99.8658 29.5469 99.8637 29.5447C99.5831 29.2649 99.1282 29.2663 98.8491 29.5476C98.5699 29.8296 98.5714 30.285 98.8519 30.5656C98.8527 30.5663 98.8534 30.5663 98.8541 30.567Z" fill="#1E243A"/>
  <path d="M100.334 31.8936C99.9405 31.849 99.5853 32.1339 99.5416 32.5281C99.4978 32.9231 99.7812 33.2792 100.175 33.323C100.202 33.3259 100.229 33.3274 100.255 33.3274C100.616 33.3274 100.927 33.0561 100.968 32.6878C101.012 32.2928 100.728 31.9375 100.334 31.8936Z" fill="#1E243A"/>
  <path d="M98.4412 34.2856C98.1061 34.4979 98.0057 34.9424 98.2173 35.2784C98.3537 35.4949 98.5868 35.6136 98.8251 35.6136C98.9557 35.6136 99.0877 35.5784 99.2068 35.5029C99.5419 35.2907 99.6423 34.8468 99.4307 34.5109C99.2196 34.1748 98.7763 34.0741 98.4412 34.2856Z" fill="#1E243A"/>
  <path d="M96.7343 28.4564C96.3404 28.501 96.0577 28.8578 96.1029 29.2527C96.1445 29.6196 96.4552 29.8901 96.8147 29.8901C96.8419 29.8901 96.87 29.8887 96.8972 29.8858C97.2911 29.8405 97.5738 29.4837 97.5286 29.0887C97.4834 28.6945 97.1275 28.411 96.7343 28.4564Z" fill="#1E243A"/>
  <path d="M96.3848 34.5202H96.3855C96.011 34.3892 95.6021 34.5878 95.4715 34.9633C95.3416 35.3381 95.5397 35.7482 95.9134 35.8791C95.9917 35.9057 96.0713 35.9187 96.1495 35.9187C96.4465 35.9187 96.7242 35.7331 96.8268 35.436C96.9573 35.0604 96.7592 34.6504 96.3848 34.5202Z" fill="#1E243A"/>
  <path d="M99.1718 4.63056C98.7979 4.76221 98.6013 5.17227 98.7326 5.5478C98.8367 5.84347 99.1137 6.02907 99.41 6.02907C99.4882 6.02907 99.5686 6.0154 99.6475 5.98807C100.021 5.85642 100.218 5.44564 100.087 5.07084C99.9553 4.69603 99.5456 4.49892 99.1718 4.63056Z" fill="#1E243A"/>
  <path d="M105.5 3.90839C105.107 3.86451 104.751 4.14939 104.708 4.54434C104.664 4.93857 104.947 5.29467 105.341 5.33856C105.368 5.34143 105.395 5.34287 105.422 5.34287C105.782 5.34359 106.093 5.07166 106.134 4.70333C106.178 4.30838 105.894 3.95299 105.5 3.90839Z" fill="#1E243A"/>
  <path d="M104.021 2.58257C104.021 2.58401 104.023 2.58473 104.023 2.58545C104.163 2.72645 104.347 2.79623 104.531 2.79623C104.714 2.79623 104.898 2.72645 105.038 2.58545C105.319 2.30488 105.319 1.8495 105.038 1.56822C105.036 1.56606 105.033 1.56318 105.03 1.56031C104.75 1.28046 104.295 1.2819 104.016 1.56319C103.736 1.84519 103.738 2.30057 104.018 2.58041C104.019 2.58113 104.02 2.58186 104.021 2.58257Z" fill="#1E243A"/>
  <path d="M100.088 2.01691C99.7519 1.80613 99.3084 1.90828 99.0982 2.24496C98.8879 2.58164 98.9898 3.02551 99.3257 3.2363C99.4441 3.3104 99.5754 3.34637 99.706 3.34637C99.9449 3.34637 100.178 3.22695 100.314 3.00897C100.525 2.67229 100.424 2.22842 100.088 2.01691Z" fill="#1E243A"/>
  <path d="M101.552 6.5356V6.53488C101.177 6.40467 100.768 6.60322 100.638 6.97883C100.508 7.35364 100.706 7.7637 101.08 7.89464C101.158 7.92197 101.237 7.9342 101.316 7.9342C101.613 7.9342 101.89 7.74859 101.994 7.45148C102.124 7.07587 101.925 6.66581 101.552 6.5356Z" fill="#1E243A"/>
  <path d="M103.608 6.30102C103.273 6.51324 103.172 6.95783 103.384 7.29379C103.52 7.51033 103.753 7.62903 103.992 7.62903C104.122 7.62903 104.255 7.59378 104.373 7.51832C104.708 7.30609 104.809 6.86222 104.597 6.52626C104.386 6.19023 103.943 6.08952 103.608 6.30102Z" fill="#1E243A"/>
  <path d="M101.9 0.471679C101.506 0.516282 101.224 0.873105 101.269 1.26806C101.311 1.63495 101.621 1.90545 101.981 1.90545C102.008 1.90545 102.036 1.90401 102.063 1.90113C102.457 1.85581 102.74 1.49898 102.695 1.10403C102.649 0.709801 102.294 0.426357 101.9 0.471679Z" fill="#1E243A"/>
  <path d="M52.2472 5.78175C51.8727 5.9134 51.676 6.32346 51.8073 6.69826C51.9107 6.99465 52.1884 7.18026 52.4847 7.18026C52.5636 7.18026 52.6433 7.16659 52.7222 7.13925C53.096 7.0076 53.2926 6.59683 53.1613 6.22202C53.0299 5.84721 52.621 5.6501 52.2472 5.78175Z" fill="#1E243A"/>
  <path d="M57.1006 3.73933C57.2398 3.87818 57.4227 3.94724 57.605 3.94724C57.7887 3.94724 57.9724 3.87745 58.1123 3.73645C58.3929 3.45588 58.3929 3.0005 58.1123 2.71921C58.1116 2.71849 58.1109 2.71777 58.1094 2.7164C58.108 2.71496 58.1066 2.71353 58.1044 2.71137C57.8238 2.43152 57.3689 2.43296 57.0898 2.71425C56.8107 2.99625 56.8121 3.45164 57.0927 3.73221C57.0955 3.73429 57.0977 3.73717 57.1006 3.73933Z" fill="#1E243A"/>
  <path d="M58.5752 5.0602C58.1813 5.0156 57.8261 5.30048 57.7823 5.69472C57.7385 6.08967 58.022 6.44577 58.4159 6.48966C58.4432 6.49254 58.4697 6.49397 58.4963 6.49397C58.8572 6.49397 59.168 6.22204 59.2089 5.85442C59.2526 5.45947 58.9691 5.10409 58.5752 5.0602Z" fill="#1E243A"/>
  <path d="M53.1618 3.16828C52.826 2.9575 52.3833 3.05965 52.1724 3.39632C51.9622 3.733 52.064 4.17686 52.3998 4.38764C52.5182 4.46174 52.6495 4.49771 52.7801 4.49771C53.019 4.49771 53.2521 4.37829 53.3885 4.16032C53.5987 3.82364 53.4975 3.37906 53.1618 3.16828Z" fill="#1E243A"/>
  <path d="M56.6819 7.4519C56.3468 7.66412 56.2464 8.10871 56.4581 8.44467C56.5944 8.66121 56.8276 8.77991 57.0651 8.77991C57.1964 8.77991 57.3285 8.74394 57.4476 8.6692C57.7827 8.45697 57.8831 8.0131 57.6714 7.67714C57.4604 7.34111 57.017 7.24039 56.6819 7.4519Z" fill="#1E243A"/>
  <path d="M54.6257 7.68637H54.6264C54.2518 7.55544 53.8428 7.75399 53.7122 8.12951C53.5823 8.50431 53.7804 8.91436 54.1549 9.04529C54.2324 9.07191 54.3121 9.08486 54.3903 9.08486C54.6873 9.08486 54.9651 8.89926 55.0677 8.60215C55.1983 8.22663 55.0002 7.81658 54.6257 7.68637Z" fill="#1E243A"/>
  <path d="M54.9746 1.62286C54.5806 1.66747 54.2979 2.02429 54.3431 2.41924C54.3847 2.78613 54.6954 3.05663 55.0549 3.05663C55.0822 3.05663 55.1102 3.05519 55.1374 3.05231C55.5313 3.00699 55.814 2.65017 55.7688 2.25522C55.7236 1.86099 55.3677 1.57754 54.9746 1.62286Z" fill="#1E243A"/>
  <path d="M13.34 61.5833C13.0042 61.3725 12.5615 61.4747 12.3506 61.8114C12.1404 62.148 12.2423 62.5919 12.578 62.8027C12.6964 62.8768 12.8277 62.9127 12.9583 62.9127C13.1972 62.9127 13.4304 62.7933 13.5667 62.5754C13.7769 62.2387 13.6757 61.7941 13.34 61.5833Z" fill="#1E243A"/>
  <path d="M14.8039 66.102H14.8046C14.4301 65.9711 14.0211 66.1696 13.8913 66.5452C13.7607 66.92 13.9588 67.33 14.3326 67.461C14.3333 67.461 14.3333 67.461 14.3333 67.461C14.4108 67.4876 14.4904 67.5005 14.5686 67.5005C14.8656 67.5005 15.1433 67.3149 15.2459 67.0178C15.3765 66.6423 15.1784 66.2322 14.8039 66.102Z" fill="#1E243A"/>
  <path d="M12.4242 64.1968C12.0504 64.3284 11.8538 64.7385 11.9851 65.1133C12.0884 65.4097 12.3661 65.5953 12.6625 65.5953C12.7407 65.5953 12.821 65.5817 12.8999 65.5543C13.2738 65.4227 13.4704 65.0119 13.3391 64.6371C13.2078 64.2623 12.7989 64.0651 12.4242 64.1968Z" fill="#1E243A"/>
  <path d="M17.2728 62.1487C17.2735 62.1502 17.275 62.1509 17.2757 62.1523C17.4156 62.2926 17.5992 62.3624 17.7829 62.3624C17.9666 62.3624 18.1503 62.2926 18.2902 62.1523C18.5708 61.871 18.5708 61.4157 18.2902 61.1344C18.2895 61.1337 18.2888 61.1329 18.2874 61.1315C18.2859 61.1301 18.2845 61.1286 18.2823 61.1265C18.0018 60.8466 17.5469 60.8481 17.2678 61.1293C16.9887 61.4114 16.9894 61.8667 17.2707 62.1473C17.2714 62.148 17.2721 62.148 17.2728 62.1487Z" fill="#1E243A"/>
  <path d="M18.753 63.4747C18.359 63.4309 18.0038 63.7157 17.96 64.11C17.9163 64.5049 18.1997 64.861 18.5937 64.9049C18.6209 64.9085 18.6475 64.9099 18.674 64.9099C19.035 64.9099 19.3457 64.6373 19.3866 64.2697C19.4304 63.8747 19.1469 63.5193 18.753 63.4747Z" fill="#1E243A"/>
  <path d="M15.1533 60.0381C14.7594 60.0827 14.4766 60.4396 14.5218 60.8345C14.5635 61.2014 14.8741 61.4719 15.2336 61.4719C15.2609 61.4719 15.2889 61.4705 15.3162 61.4676C15.7101 61.4223 15.9928 61.0655 15.9476 60.6705C15.9024 60.2763 15.5465 59.9928 15.1533 60.0381Z" fill="#1E243A"/>
  <path d="M16.8602 65.8675C16.5251 66.0797 16.4246 66.5243 16.6363 66.8603C16.7726 67.0768 17.0051 67.1955 17.2433 67.1955C17.3746 67.1955 17.5067 67.1596 17.6258 67.0847C17.9609 66.8725 18.0613 66.4286 17.8496 66.0927C17.6386 65.7567 17.1953 65.656 16.8602 65.8675Z" fill="#1E243A"/>
  <path d="M4.81744 43.1245C4.52024 43.1245 4.2793 43.3661 4.2793 43.6641V47.1172C4.2793 47.4151 4.52024 47.6567 4.81744 47.6567C5.11463 47.6567 5.35558 47.4151 5.35558 47.1172V43.6641C5.35558 43.3661 5.11463 43.1245 4.81744 43.1245Z" fill="#1E243A"/>
  <path d="M6.57542 44.8868H3.13139C2.8342 44.8868 2.59326 45.1283 2.59326 45.4263C2.59326 45.7243 2.8342 45.9659 3.13139 45.9659H6.57542C6.87261 45.9659 7.11355 45.7243 7.11355 45.4263C7.11355 45.1283 6.87261 44.8868 6.57542 44.8868Z" fill="#1E243A"/>
  <path d="M86.9009 8.5213C86.6037 8.5213 86.3628 8.76288 86.3628 9.06085V12.514C86.3628 12.8119 86.6037 13.0535 86.9009 13.0535C87.1981 13.0535 87.439 12.8119 87.439 12.514V9.06085C87.439 8.76288 87.1981 8.5213 86.9009 8.5213Z" fill="#1E243A"/>
  <path d="M88.6589 10.2838H85.2149C84.9177 10.2838 84.6768 10.5253 84.6768 10.8233C84.6768 11.1213 84.9177 11.3628 85.2149 11.3628H88.6589C88.9561 11.3628 89.1971 11.1213 89.1971 10.8233C89.1971 10.5253 88.9561 10.2838 88.6589 10.2838Z" fill="#1E243A"/>
  <path d="M103.548 49.8865C103.251 49.8865 103.01 50.1281 103.01 50.4261V53.8792C103.01 54.1772 103.251 54.4187 103.548 54.4187C103.845 54.4187 104.086 54.1772 104.086 53.8792V50.4261C104.086 50.1281 103.845 49.8865 103.548 49.8865Z" fill="#1E243A"/>
  <path d="M105.305 51.649H101.861C101.564 51.649 101.323 51.8906 101.323 52.1885C101.323 52.4865 101.564 52.7281 101.861 52.7281H105.305C105.602 52.7281 105.843 52.4865 105.843 52.1885C105.843 51.8906 105.602 51.649 105.305 51.649Z" fill="#1E243A"/>
  <path d="M9.05082 0.320007C8.75363 0.320007 8.5127 0.561582 8.5127 0.859557V4.31267C8.5127 4.61065 8.75363 4.85222 9.05082 4.85222C9.34801 4.85222 9.58895 4.61065 9.58895 4.31267V0.859557C9.58895 0.561582 9.34801 0.320007 9.05082 0.320007Z" fill="#1E243A"/>
  <path d="M10.8089 2.08252H7.36479C7.0676 2.08252 6.82666 2.32409 6.82666 2.62207C6.82666 2.92004 7.0676 3.16162 7.36479 3.16162H10.8089C11.106 3.16162 11.347 2.92004 11.347 2.62207C11.347 2.32409 11.106 2.08252 10.8089 2.08252Z" fill="#1E243A"/>
</svg>